<?xml version="1.0" standalone="no"?>
<!DOCTYPE svg PUBLIC "-//W3C//DTD SVG 20010904//EN"
 "http://www.w3.org/TR/2001/REC-SVG-20010904/DTD/svg10.dtd">
<svg version="1.0" xmlns="http://www.w3.org/2000/svg"
 width="505.000000pt" height="505.000000pt" viewBox="0 0 505.000000 505.000000"
 preserveAspectRatio="xMidYMid meet">
<metadata>
Created by potrace 1.11, written by Peter Selinger 2001-2013
</metadata>
<g transform="translate(0.000000,505.000000) scale(0.100000,-0.100000)"
fill="#000000" stroke="none">
<path d="M1677 5044 c-1 -1 -45 -4 -97 -7 -82 -6 -125 -11 -225 -31 -310 -61
-628 -237 -865 -478 -63 -65 -210 -247 -210 -262 0 -3 -14 -25 -30 -50 -73
-107 -171 -355 -204 -513 -36 -173 -38 -225 -37 -1188 0 -522 2 -963 5 -980
62 -499 290 -904 667 -1190 225 -170 463 -272 754 -324 104 -18 161 -19 1090
-19 959 0 1024 2 1165 31 507 104 945 438 1175 895 78 155 141 339 159 468 3
21 10 68 15 104 11 74 9 2013 -2 2075 -9 51 -24 122 -44 205 -14 58 -20 80
-49 155 -4 11 -8 25 -9 31 -7 29 -112 232 -154 296 -207 314 -493 545 -834
672 -144 54 -301 90 -447 102 -59 5 -1817 13 -1823 8z"/>
</g>
</svg>
